# xmcd
# Track frame offsets:
# 150
# 22298
# 37656
# 51595
# 66959
# 80162
# 96597
# 110579
# 127320
# 144462
# 159195
# 173209
#
# Disc length: 2494 seconds
# Revision: 0
# Processed by: cddbd v1.5.2PL0 Copyright (c) Steve Scherf et al.
# Submitted via: VisiTrax 2.10.3.257 - For more info visit www.synapsa.com
#
DISCID=b209bc0c
DTITLE=George Jones - Burn Your Playhouse Down
DYEAR=2008
DGENRE=Country
TTITLE0=with Georgette Jones - You And Me And Time
TTITLE1=with Leon Russell - The Window Up Above
TTITLE2=with Ricky Skaggs - She Once Lived Here
TTITLE3=with Dolly Parton - Rockin' Years
TTITLE4=with Keith Richards - Burn Your Playhouse Down
TTITLE5=with Vince Gill - Selfishness In Man
TTITLE6=with Jim Lauderdale - Tavern Choir
TTITLE7=with Shelby Lynne - I Always Get It Right With You
TTITLE8=with Mark Chesnutt - When The Grass Grows Over Me
TTITLE9=with Mark Knopfler - I Always Get Lucky With You
TTITLE10=with Marty Stuart - You're Still On My Mind
TTITLE11=with Tammy Wynette - Lovin' You, Lovin' Me
EXTD=
EXTT0=
EXTT1=
EXTT2=
EXTT3=
EXTT4=
EXTT5=
EXTT6=
EXTT7=
EXTT8=
EXTT9=
EXTT10=
EXTT11=
PLAYORDER=
